<mxfile host="app.diagrams.net" modified="2021-06-05T19:53:52.223Z" agent="5.0 (Windows NT 10.0; Win64; x64) AppleWebKit/537.36 (KHTML, like Gecko) Chrome/91.0.4472.77 Safari/537.36 Edg/91.0.864.41" etag="kH6omGFHTH2hjkfKTNeG" version="14.7.6" type="github">
  <diagram id="HngGGPJ-foLnSHN_3rgD" name="Page-1">
    <mxGraphModel dx="599" dy="332" grid="1" gridSize="10" guides="1" tooltips="1" connect="1" arrows="1" fold="1" page="1" pageScale="1" pageWidth="850" pageHeight="1100" math="0" shadow="0">
      <root>
        <mxCell id="0" />
        <mxCell id="1" parent="0" />
        <mxCell id="EKzITtWmF3Cm9eYMjBlw-62" value="" style="rounded=1;whiteSpace=wrap;html=1;dashed=1;" vertex="1" parent="1">
          <mxGeometry x="20" y="60" width="340" height="470" as="geometry" />
        </mxCell>
        <mxCell id="EKzITtWmF3Cm9eYMjBlw-1" value="UI" style="rounded=1;whiteSpace=wrap;html=1;" vertex="1" parent="1">
          <mxGeometry x="195" y="10" width="185" height="30" as="geometry" />
        </mxCell>
        <mxCell id="EKzITtWmF3Cm9eYMjBlw-2" value="Command processor" style="rounded=1;whiteSpace=wrap;html=1;" vertex="1" parent="1">
          <mxGeometry x="70" y="100" width="120" height="40" as="geometry" />
        </mxCell>
        <mxCell id="EKzITtWmF3Cm9eYMjBlw-4" value="Command handler" style="rounded=1;whiteSpace=wrap;html=1;" vertex="1" parent="1">
          <mxGeometry x="70" y="172" width="120" height="30" as="geometry" />
        </mxCell>
        <mxCell id="EKzITtWmF3Cm9eYMjBlw-8" value="" style="group" vertex="1" connectable="0" parent="1">
          <mxGeometry x="39.37" y="400" width="188.13" height="120" as="geometry" />
        </mxCell>
        <mxCell id="EKzITtWmF3Cm9eYMjBlw-5" value="" style="shape=cylinder3;whiteSpace=wrap;html=1;boundedLbl=1;backgroundOutline=1;size=15;" vertex="1" parent="EKzITtWmF3Cm9eYMjBlw-8">
          <mxGeometry width="188.13" height="120" as="geometry" />
        </mxCell>
        <mxCell id="EKzITtWmF3Cm9eYMjBlw-6" value="event store" style="rounded=1;whiteSpace=wrap;html=1;" vertex="1" parent="EKzITtWmF3Cm9eYMjBlw-8">
          <mxGeometry x="8.42" y="34.28571428571429" width="56.16" height="34.28571428571429" as="geometry" />
        </mxCell>
        <mxCell id="EKzITtWmF3Cm9eYMjBlw-7" value="undispatched&lt;br&gt;message" style="rounded=1;whiteSpace=wrap;html=1;" vertex="1" parent="EKzITtWmF3Cm9eYMjBlw-8">
          <mxGeometry x="75.81358208955224" y="40.88241758241759" width="101.084776119403" height="55.38461538461539" as="geometry" />
        </mxCell>
        <mxCell id="EKzITtWmF3Cm9eYMjBlw-67" value="snapshot" style="rounded=1;whiteSpace=wrap;html=1;" vertex="1" parent="EKzITtWmF3Cm9eYMjBlw-8">
          <mxGeometry x="8.42" y="73.84285714285716" width="56.16" height="29.01428571428572" as="geometry" />
        </mxCell>
        <mxCell id="EKzITtWmF3Cm9eYMjBlw-14" value="" style="endArrow=classic;startArrow=classic;html=1;exitX=0.5;exitY=0;exitDx=0;exitDy=0;entryX=0;entryY=0.5;entryDx=0;entryDy=0;" edge="1" parent="1" source="EKzITtWmF3Cm9eYMjBlw-2" target="EKzITtWmF3Cm9eYMjBlw-1">
          <mxGeometry width="50" height="50" relative="1" as="geometry">
            <mxPoint x="140" y="90" as="sourcePoint" />
            <mxPoint x="190" y="40" as="targetPoint" />
            <Array as="points">
              <mxPoint x="130" y="25" />
            </Array>
          </mxGeometry>
        </mxCell>
        <mxCell id="EKzITtWmF3Cm9eYMjBlw-15" value="command" style="edgeLabel;html=1;align=center;verticalAlign=middle;resizable=0;points=[];" vertex="1" connectable="0" parent="EKzITtWmF3Cm9eYMjBlw-14">
          <mxGeometry x="0.0903" y="3" relative="1" as="geometry">
            <mxPoint x="-2" y="28" as="offset" />
          </mxGeometry>
        </mxCell>
        <mxCell id="EKzITtWmF3Cm9eYMjBlw-20" value="repository" style="rounded=1;whiteSpace=wrap;html=1;" vertex="1" parent="1">
          <mxGeometry x="70" y="320" width="120" height="30" as="geometry" />
        </mxCell>
        <mxCell id="EKzITtWmF3Cm9eYMjBlw-32" value="Domain models" style="rounded=1;whiteSpace=wrap;html=1;" vertex="1" parent="1">
          <mxGeometry x="70" y="230" width="120" height="40" as="geometry" />
        </mxCell>
        <mxCell id="EKzITtWmF3Cm9eYMjBlw-34" value="" style="endArrow=classic;html=1;strokeWidth=1;exitX=1;exitY=0.25;exitDx=0;exitDy=0;entryX=0;entryY=0.25;entryDx=0;entryDy=0;" edge="1" parent="1" source="EKzITtWmF3Cm9eYMjBlw-7" target="EKzITtWmF3Cm9eYMjBlw-64">
          <mxGeometry width="50" height="50" relative="1" as="geometry">
            <mxPoint x="230" y="490" as="sourcePoint" />
            <mxPoint x="240" y="480" as="targetPoint" />
          </mxGeometry>
        </mxCell>
        <mxCell id="EKzITtWmF3Cm9eYMjBlw-86" value="poll" style="edgeLabel;html=1;align=center;verticalAlign=middle;resizable=0;points=[];" vertex="1" connectable="0" parent="EKzITtWmF3Cm9eYMjBlw-34">
          <mxGeometry x="-0.1554" y="1" relative="1" as="geometry">
            <mxPoint x="3" as="offset" />
          </mxGeometry>
        </mxCell>
        <mxCell id="EKzITtWmF3Cm9eYMjBlw-41" value="" style="endArrow=classic;html=1;strokeWidth=1;exitX=0.5;exitY=1;exitDx=0;exitDy=0;entryX=0.5;entryY=0;entryDx=0;entryDy=0;" edge="1" parent="1" source="EKzITtWmF3Cm9eYMjBlw-2" target="EKzITtWmF3Cm9eYMjBlw-4">
          <mxGeometry width="50" height="50" relative="1" as="geometry">
            <mxPoint x="290" y="200" as="sourcePoint" />
            <mxPoint x="160" y="170" as="targetPoint" />
          </mxGeometry>
        </mxCell>
        <mxCell id="EKzITtWmF3Cm9eYMjBlw-42" value="events" style="endArrow=classic;html=1;strokeWidth=1;exitX=0.25;exitY=1;exitDx=0;exitDy=0;entryX=0.328;entryY=-0.002;entryDx=0;entryDy=0;entryPerimeter=0;" edge="1" parent="1" source="EKzITtWmF3Cm9eYMjBlw-20" target="EKzITtWmF3Cm9eYMjBlw-5">
          <mxGeometry width="50" height="50" relative="1" as="geometry">
            <mxPoint x="260" y="370" as="sourcePoint" />
            <mxPoint x="310" y="320" as="targetPoint" />
          </mxGeometry>
        </mxCell>
        <mxCell id="EKzITtWmF3Cm9eYMjBlw-43" value="events" style="endArrow=classic;html=1;strokeWidth=1;entryX=0.75;entryY=1;entryDx=0;entryDy=0;exitX=0.639;exitY=-0.002;exitDx=0;exitDy=0;exitPerimeter=0;" edge="1" parent="1" source="EKzITtWmF3Cm9eYMjBlw-5" target="EKzITtWmF3Cm9eYMjBlw-20">
          <mxGeometry width="50" height="50" relative="1" as="geometry">
            <mxPoint x="200" y="370" as="sourcePoint" />
            <mxPoint x="320" y="340" as="targetPoint" />
          </mxGeometry>
        </mxCell>
        <mxCell id="EKzITtWmF3Cm9eYMjBlw-44" value="aggregate" style="endArrow=classic;html=1;strokeWidth=1;exitX=0.25;exitY=1;exitDx=0;exitDy=0;entryX=0.25;entryY=0;entryDx=0;entryDy=0;" edge="1" parent="1" source="EKzITtWmF3Cm9eYMjBlw-32" target="EKzITtWmF3Cm9eYMjBlw-20">
          <mxGeometry width="50" height="50" relative="1" as="geometry">
            <mxPoint x="270" y="310" as="sourcePoint" />
            <mxPoint x="320" y="260" as="targetPoint" />
          </mxGeometry>
        </mxCell>
        <mxCell id="EKzITtWmF3Cm9eYMjBlw-45" value="aggregate" style="endArrow=classic;html=1;strokeWidth=1;exitX=0.75;exitY=0;exitDx=0;exitDy=0;entryX=0.75;entryY=1;entryDx=0;entryDy=0;" edge="1" parent="1" source="EKzITtWmF3Cm9eYMjBlw-20" target="EKzITtWmF3Cm9eYMjBlw-32">
          <mxGeometry width="50" height="50" relative="1" as="geometry">
            <mxPoint x="260" y="320" as="sourcePoint" />
            <mxPoint x="310" y="270" as="targetPoint" />
          </mxGeometry>
        </mxCell>
        <mxCell id="EKzITtWmF3Cm9eYMjBlw-46" value="" style="endArrow=classic;html=1;strokeWidth=1;exitX=0.5;exitY=1;exitDx=0;exitDy=0;" edge="1" parent="1" source="EKzITtWmF3Cm9eYMjBlw-4">
          <mxGeometry width="50" height="50" relative="1" as="geometry">
            <mxPoint x="340" y="270" as="sourcePoint" />
            <mxPoint x="130" y="230" as="targetPoint" />
          </mxGeometry>
        </mxCell>
        <mxCell id="EKzITtWmF3Cm9eYMjBlw-47" value="event handler" style="rounded=1;whiteSpace=wrap;html=1;" vertex="1" parent="1">
          <mxGeometry x="227.5" y="350" width="120" height="40" as="geometry" />
        </mxCell>
        <mxCell id="EKzITtWmF3Cm9eYMjBlw-50" value="read data" style="shape=cylinder3;whiteSpace=wrap;html=1;boundedLbl=1;backgroundOutline=1;size=15;" vertex="1" parent="1">
          <mxGeometry x="250" y="250" width="75" height="70" as="geometry" />
        </mxCell>
        <mxCell id="EKzITtWmF3Cm9eYMjBlw-51" value="" style="endArrow=classic;html=1;strokeWidth=1;exitX=0.5;exitY=0;exitDx=0;exitDy=0;entryX=0.5;entryY=1;entryDx=0;entryDy=0;entryPerimeter=0;" edge="1" parent="1" source="EKzITtWmF3Cm9eYMjBlw-47" target="EKzITtWmF3Cm9eYMjBlw-50">
          <mxGeometry width="50" height="50" relative="1" as="geometry">
            <mxPoint x="430" y="380" as="sourcePoint" />
            <mxPoint x="480" y="330" as="targetPoint" />
          </mxGeometry>
        </mxCell>
        <mxCell id="EKzITtWmF3Cm9eYMjBlw-53" value="Thin layer" style="rounded=1;whiteSpace=wrap;html=1;" vertex="1" parent="1">
          <mxGeometry x="227.5" y="175" width="120" height="30" as="geometry" />
        </mxCell>
        <mxCell id="EKzITtWmF3Cm9eYMjBlw-54" value="Facade pattern" style="rounded=1;whiteSpace=wrap;html=1;" vertex="1" parent="1">
          <mxGeometry x="227.5" y="120" width="120" height="30" as="geometry" />
        </mxCell>
        <mxCell id="EKzITtWmF3Cm9eYMjBlw-55" value="" style="endArrow=classic;html=1;strokeWidth=1;exitX=0.25;exitY=0;exitDx=0;exitDy=0;entryX=0.25;entryY=1;entryDx=0;entryDy=0;" edge="1" parent="1" source="EKzITtWmF3Cm9eYMjBlw-53" target="EKzITtWmF3Cm9eYMjBlw-54">
          <mxGeometry width="50" height="50" relative="1" as="geometry">
            <mxPoint x="430" y="240" as="sourcePoint" />
            <mxPoint x="480" y="190" as="targetPoint" />
          </mxGeometry>
        </mxCell>
        <mxCell id="EKzITtWmF3Cm9eYMjBlw-56" value="" style="endArrow=classic;html=1;strokeWidth=1;exitX=0.75;exitY=1;exitDx=0;exitDy=0;entryX=0.75;entryY=0;entryDx=0;entryDy=0;" edge="1" parent="1" source="EKzITtWmF3Cm9eYMjBlw-54" target="EKzITtWmF3Cm9eYMjBlw-53">
          <mxGeometry width="50" height="50" relative="1" as="geometry">
            <mxPoint x="460" y="210" as="sourcePoint" />
            <mxPoint x="510" y="160" as="targetPoint" />
          </mxGeometry>
        </mxCell>
        <mxCell id="EKzITtWmF3Cm9eYMjBlw-57" value="DTO" style="endArrow=classic;html=1;strokeWidth=1;exitX=0.25;exitY=0;exitDx=0;exitDy=0;entryX=0.5;entryY=1;entryDx=0;entryDy=0;" edge="1" parent="1" source="EKzITtWmF3Cm9eYMjBlw-54" target="EKzITtWmF3Cm9eYMjBlw-1">
          <mxGeometry x="-0.3333" width="50" height="50" relative="1" as="geometry">
            <mxPoint x="430" y="170" as="sourcePoint" />
            <mxPoint x="480" y="120" as="targetPoint" />
            <mxPoint as="offset" />
          </mxGeometry>
        </mxCell>
        <mxCell id="EKzITtWmF3Cm9eYMjBlw-58" value="Query" style="endArrow=classic;html=1;strokeWidth=1;entryX=0.75;entryY=0;entryDx=0;entryDy=0;exitX=0.5;exitY=1;exitDx=0;exitDy=0;" edge="1" parent="1" source="EKzITtWmF3Cm9eYMjBlw-1" target="EKzITtWmF3Cm9eYMjBlw-54">
          <mxGeometry x="0.3333" width="50" height="50" relative="1" as="geometry">
            <mxPoint x="360" y="60" as="sourcePoint" />
            <mxPoint x="480" y="70" as="targetPoint" />
            <mxPoint as="offset" />
          </mxGeometry>
        </mxCell>
        <mxCell id="EKzITtWmF3Cm9eYMjBlw-59" value="" style="endArrow=classic;html=1;strokeWidth=1;exitX=0.75;exitY=1;exitDx=0;exitDy=0;entryX=0.5;entryY=0;entryDx=0;entryDy=0;entryPerimeter=0;" edge="1" parent="1" source="EKzITtWmF3Cm9eYMjBlw-53" target="EKzITtWmF3Cm9eYMjBlw-50">
          <mxGeometry width="50" height="50" relative="1" as="geometry">
            <mxPoint x="420" y="290" as="sourcePoint" />
            <mxPoint x="470" y="240" as="targetPoint" />
          </mxGeometry>
        </mxCell>
        <mxCell id="EKzITtWmF3Cm9eYMjBlw-60" value="" style="endArrow=classic;html=1;strokeWidth=1;exitX=0.5;exitY=0;exitDx=0;exitDy=0;exitPerimeter=0;entryX=0.25;entryY=1;entryDx=0;entryDy=0;" edge="1" parent="1" source="EKzITtWmF3Cm9eYMjBlw-50" target="EKzITtWmF3Cm9eYMjBlw-53">
          <mxGeometry width="50" height="50" relative="1" as="geometry">
            <mxPoint x="210" y="310" as="sourcePoint" />
            <mxPoint x="260" y="260" as="targetPoint" />
          </mxGeometry>
        </mxCell>
        <mxCell id="EKzITtWmF3Cm9eYMjBlw-63" value="" style="aspect=fixed;pointerEvents=1;shadow=0;dashed=0;html=1;strokeColor=none;labelPosition=center;verticalLabelPosition=bottom;verticalAlign=top;align=center;fillColor=#00188D;shape=mxgraph.azure.queue_generic" vertex="1" parent="1">
          <mxGeometry x="372" y="446.3" width="160" height="48" as="geometry" />
        </mxCell>
        <mxCell id="EKzITtWmF3Cm9eYMjBlw-64" value="worker" style="rounded=1;whiteSpace=wrap;html=1;" vertex="1" parent="1">
          <mxGeometry x="290" y="444.58" width="50" height="51.43" as="geometry" />
        </mxCell>
        <mxCell id="EKzITtWmF3Cm9eYMjBlw-65" value="" style="endArrow=classic;html=1;strokeWidth=1;exitX=1;exitY=0.5;exitDx=0;exitDy=0;entryX=0;entryY=0.5;entryDx=0;entryDy=0;entryPerimeter=0;" edge="1" parent="1" source="EKzITtWmF3Cm9eYMjBlw-64" target="EKzITtWmF3Cm9eYMjBlw-63">
          <mxGeometry width="50" height="50" relative="1" as="geometry">
            <mxPoint x="420" y="590" as="sourcePoint" />
            <mxPoint x="470" y="540" as="targetPoint" />
          </mxGeometry>
        </mxCell>
        <mxCell id="EKzITtWmF3Cm9eYMjBlw-66" value="event" style="endArrow=classic;html=1;strokeWidth=1;exitX=0.14;exitY=0.019;exitDx=0;exitDy=0;exitPerimeter=0;entryX=0.5;entryY=1;entryDx=0;entryDy=0;" edge="1" parent="1" source="EKzITtWmF3Cm9eYMjBlw-63" target="EKzITtWmF3Cm9eYMjBlw-47">
          <mxGeometry width="50" height="50" relative="1" as="geometry">
            <mxPoint x="440" y="580" as="sourcePoint" />
            <mxPoint x="490" y="530" as="targetPoint" />
          </mxGeometry>
        </mxCell>
        <mxCell id="EKzITtWmF3Cm9eYMjBlw-70" value="&lt;span&gt;Bounded context&lt;/span&gt;" style="rounded=0;whiteSpace=wrap;html=1;strokeWidth=2;" vertex="1" parent="1">
          <mxGeometry x="6" y="70" width="64" height="40" as="geometry" />
        </mxCell>
        <mxCell id="EKzITtWmF3Cm9eYMjBlw-72" value="&lt;b&gt;Process manager&lt;/b&gt;" style="rounded=0;whiteSpace=wrap;html=1;strokeWidth=2;" vertex="1" parent="1">
          <mxGeometry x="425" y="226.14" width="120" height="40" as="geometry" />
        </mxCell>
        <mxCell id="EKzITtWmF3Cm9eYMjBlw-74" value="" style="endArrow=classic;startArrow=classic;html=1;strokeWidth=1;exitX=1.003;exitY=0.397;exitDx=0;exitDy=0;exitPerimeter=0;entryX=0;entryY=0.5;entryDx=0;entryDy=0;" edge="1" parent="1" source="EKzITtWmF3Cm9eYMjBlw-62" target="EKzITtWmF3Cm9eYMjBlw-72">
          <mxGeometry width="50" height="50" relative="1" as="geometry">
            <mxPoint x="410" y="220" as="sourcePoint" />
            <mxPoint x="460" y="170" as="targetPoint" />
          </mxGeometry>
        </mxCell>
        <mxCell id="EKzITtWmF3Cm9eYMjBlw-76" value="" style="endArrow=classic;startArrow=classic;html=1;strokeWidth=1;exitX=1;exitY=0.5;exitDx=0;exitDy=0;entryX=0;entryY=0.5;entryDx=0;entryDy=0;" edge="1" parent="1" source="EKzITtWmF3Cm9eYMjBlw-72" target="EKzITtWmF3Cm9eYMjBlw-68">
          <mxGeometry width="50" height="50" relative="1" as="geometry">
            <mxPoint x="540" y="320" as="sourcePoint" />
            <mxPoint x="590" y="270" as="targetPoint" />
          </mxGeometry>
        </mxCell>
        <mxCell id="EKzITtWmF3Cm9eYMjBlw-79" value="" style="group" vertex="1" connectable="0" parent="1">
          <mxGeometry x="400" y="320" width="170" height="110" as="geometry" />
        </mxCell>
        <mxCell id="EKzITtWmF3Cm9eYMjBlw-73" value="" style="shape=cylinder3;whiteSpace=wrap;html=1;boundedLbl=1;backgroundOutline=1;size=15;strokeWidth=1;" vertex="1" parent="EKzITtWmF3Cm9eYMjBlw-79">
          <mxGeometry width="170" height="110.00000000000001" as="geometry" />
        </mxCell>
        <mxCell id="EKzITtWmF3Cm9eYMjBlw-77" value="undispatched&lt;br&gt;message" style="rounded=1;whiteSpace=wrap;html=1;" vertex="1" parent="EKzITtWmF3Cm9eYMjBlw-79">
          <mxGeometry x="80" y="40" width="80" height="51.67" as="geometry" />
        </mxCell>
        <mxCell id="EKzITtWmF3Cm9eYMjBlw-78" value="Process&lt;br&gt;manager" style="rounded=1;whiteSpace=wrap;html=1;" vertex="1" parent="EKzITtWmF3Cm9eYMjBlw-79">
          <mxGeometry x="10" y="40" width="60" height="52.45" as="geometry" />
        </mxCell>
        <mxCell id="EKzITtWmF3Cm9eYMjBlw-80" value="" style="shape=flexArrow;endArrow=classic;startArrow=classic;html=1;strokeWidth=1;entryX=0.5;entryY=1;entryDx=0;entryDy=0;exitX=0.5;exitY=0;exitDx=0;exitDy=0;exitPerimeter=0;width=6;" edge="1" parent="1" source="EKzITtWmF3Cm9eYMjBlw-73" target="EKzITtWmF3Cm9eYMjBlw-72">
          <mxGeometry width="100" height="100" relative="1" as="geometry">
            <mxPoint x="502" y="310" as="sourcePoint" />
            <mxPoint x="630" y="450" as="targetPoint" />
          </mxGeometry>
        </mxCell>
        <mxCell id="EKzITtWmF3Cm9eYMjBlw-81" value="worker" style="rounded=1;whiteSpace=wrap;html=1;" vertex="1" parent="1">
          <mxGeometry x="570" y="448.87" width="50" height="45.43" as="geometry" />
        </mxCell>
        <mxCell id="EKzITtWmF3Cm9eYMjBlw-82" value="command" style="endArrow=classic;html=1;strokeWidth=1;exitX=0.75;exitY=1;exitDx=0;exitDy=0;entryX=0.5;entryY=0;entryDx=0;entryDy=0;" edge="1" parent="1" source="EKzITtWmF3Cm9eYMjBlw-77" target="EKzITtWmF3Cm9eYMjBlw-81">
          <mxGeometry width="50" height="50" relative="1" as="geometry">
            <mxPoint x="440" y="570" as="sourcePoint" />
            <mxPoint x="490" y="520" as="targetPoint" />
          </mxGeometry>
        </mxCell>
        <mxCell id="EKzITtWmF3Cm9eYMjBlw-83" value="" style="endArrow=classic;html=1;strokeWidth=1;entryX=1;entryY=0.51;entryDx=0;entryDy=0;entryPerimeter=0;exitX=0;exitY=0.5;exitDx=0;exitDy=0;" edge="1" parent="1" source="EKzITtWmF3Cm9eYMjBlw-81" target="EKzITtWmF3Cm9eYMjBlw-63">
          <mxGeometry width="50" height="50" relative="1" as="geometry">
            <mxPoint x="480" y="580" as="sourcePoint" />
            <mxPoint x="530" y="530" as="targetPoint" />
          </mxGeometry>
        </mxCell>
        <mxCell id="EKzITtWmF3Cm9eYMjBlw-84" value="" style="group" vertex="1" connectable="0" parent="1">
          <mxGeometry x="562" y="154" width="128" height="184.27999999999997" as="geometry" />
        </mxCell>
        <mxCell id="EKzITtWmF3Cm9eYMjBlw-68" value="" style="rounded=1;whiteSpace=wrap;html=1;dashed=1;" vertex="1" parent="EKzITtWmF3Cm9eYMjBlw-84">
          <mxGeometry x="38" width="90" height="184.28" as="geometry" />
        </mxCell>
        <mxCell id="EKzITtWmF3Cm9eYMjBlw-71" value="&lt;span&gt;Bounded context&lt;/span&gt;" style="rounded=0;whiteSpace=wrap;html=1;strokeWidth=2;" vertex="1" parent="EKzITtWmF3Cm9eYMjBlw-84">
          <mxGeometry y="11" width="64" height="40" as="geometry" />
        </mxCell>
        <mxCell id="EKzITtWmF3Cm9eYMjBlw-85" value="remove" style="endArrow=classic;html=1;strokeWidth=1;entryX=1;entryY=0.75;entryDx=0;entryDy=0;exitX=0;exitY=0.75;exitDx=0;exitDy=0;" edge="1" parent="1" source="EKzITtWmF3Cm9eYMjBlw-64" target="EKzITtWmF3Cm9eYMjBlw-7">
          <mxGeometry width="50" height="50" relative="1" as="geometry">
            <mxPoint x="230" y="520" as="sourcePoint" />
            <mxPoint x="280" y="470" as="targetPoint" />
          </mxGeometry>
        </mxCell>
        <mxCell id="EKzITtWmF3Cm9eYMjBlw-87" value="version" style="endArrow=none;dashed=1;html=1;dashPattern=1 3;strokeWidth=2;exitX=0.776;exitY=0.018;exitDx=0;exitDy=0;exitPerimeter=0;" edge="1" parent="1" source="EKzITtWmF3Cm9eYMjBlw-5">
          <mxGeometry x="0.3103" y="-3" width="50" height="50" relative="1" as="geometry">
            <mxPoint x="200" y="340" as="sourcePoint" />
            <mxPoint x="250" y="290" as="targetPoint" />
            <mxPoint as="offset" />
          </mxGeometry>
        </mxCell>
      </root>
    </mxGraphModel>
  </diagram>
</mxfile>
